<?xml version="1.0" encoding="UTF-8" standalone="no"?>
<!-- Created with Inkscape (http://www.inkscape.org/) -->

<svg
   width="166mm"
   height="194mm"
   viewBox="0 0 166 194"
   version="1.1"
   id="svg1"
   inkscape:version="1.3.2 (091e20e, 2023-11-25)"
   sodipodi:docname="dots_white.svg"
   xmlns:inkscape="http://www.inkscape.org/namespaces/inkscape"
   xmlns:sodipodi="http://sodipodi.sourceforge.net/DTD/sodipodi-0.dtd"
   xmlns="http://www.w3.org/2000/svg"
   xmlns:svg="http://www.w3.org/2000/svg">
  <sodipodi:namedview
     id="namedview1"
     pagecolor="#2e2e2e"
     bordercolor="#000000"
     borderopacity="0.25"
     inkscape:showpageshadow="2"
     inkscape:pageopacity="0.0"
     inkscape:pagecheckerboard="0"
     inkscape:deskcolor="#d1d1d1"
     inkscape:document-units="mm"
     inkscape:zoom="0.49506861"
     inkscape:cx="327.22737"
     inkscape:cy="535.27934"
     inkscape:window-width="1440"
     inkscape:window-height="805"
     inkscape:window-x="0"
     inkscape:window-y="23"
     inkscape:window-maximized="0"
     inkscape:current-layer="layer1" />
  <defs
     id="defs1">
    <rect
       x="597.89691"
       y="957.44305"
       width="450.44263"
       height="20.199221"
       id="rect3" />
    <rect
       x="187.85275"
       y="830.18799"
       width="214.11174"
       height="74.737114"
       id="rect2" />
  </defs>
  <g
     inkscape:label="Layer 1"
     inkscape:groupmode="layer"
     id="layer1">
    <path
       style="fill:#ffffff;fill-opacity:1;stroke-width:0.264583"
       id="path3"
       sodipodi:type="arc"
       sodipodi:cx="10.421528"
       sodipodi:cy="182.77769"
       sodipodi:rx="8.2837849"
       sodipodi:ry="8.5510035"
       sodipodi:start="3.1415927"
       sodipodi:end="2.9323592"
       sodipodi:open="true"
       sodipodi:arc-type="arc"
       d="m 2.137743,182.77769 a 8.2837849,8.5510035 0 0 1 7.8506715,-8.5393 8.2837849,8.5510035 0 0 1 8.6716075,7.64636 8.2837849,8.5510035 0 0 1 -6.943889,9.33888 8.2837849,8.5510035 0 0 1 -9.3977241,-6.66981" />
    <path
       style="fill:#ffffff;fill-opacity:1;stroke-width:0.264583"
       id="path3-6"
       sodipodi:type="arc"
       sodipodi:cx="83.900879"
       sodipodi:cy="10.048893"
       sodipodi:rx="8.2837849"
       sodipodi:ry="8.5510035"
       sodipodi:start="3.1415927"
       sodipodi:end="2.9323592"
       sodipodi:open="true"
       sodipodi:arc-type="arc"
       d="m 75.617094,10.048893 a 8.2837849,8.5510035 0 0 1 7.850672,-8.5393077 8.2837849,8.5510035 0 0 1 8.671608,7.6463608 8.2837849,8.5510035 0 0 1 -6.94389,9.3388799 8.2837849,8.5510035 0 0 1 -9.397724,-6.669803" />
    <path
       style="fill:#ffffff;fill-opacity:1;stroke-width:0.264583"
       id="path3-6-2"
       sodipodi:type="arc"
       sodipodi:cx="108.03388"
       sodipodi:cy="86.69693"
       sodipodi:rx="8.2837849"
       sodipodi:ry="8.5510035"
       sodipodi:start="3.1415927"
       sodipodi:end="2.9323592"
       sodipodi:open="true"
       sodipodi:arc-type="arc"
       d="m 99.750097,86.69693 a 8.2837849,8.5510035 0 0 1 7.850673,-8.539308 8.2837849,8.5510035 0 0 1 8.67161,7.646361 8.2837849,8.5510035 0 0 1 -6.94389,9.33888 8.2837849,8.5510035 0 0 1 -9.397727,-6.669803" />
    <path
       style="fill:#ffffff;fill-opacity:1;stroke-width:0.264583"
       id="path3-7"
       sodipodi:type="arc"
       sodipodi:cx="156.53169"
       sodipodi:cy="182.36551"
       sodipodi:rx="8.2837849"
       sodipodi:ry="8.5510035"
       sodipodi:start="3.1415927"
       sodipodi:end="2.9323592"
       sodipodi:open="true"
       sodipodi:arc-type="arc"
       d="m 148.24791,182.36551 a 8.2837849,8.5510035 0 0 1 7.85067,-8.53931 8.2837849,8.5510035 0 0 1 8.67161,7.64636 8.2837849,8.5510035 0 0 1 -6.94389,9.33888 8.2837849,8.5510035 0 0 1 -9.39773,-6.6698" />
    <path
       style="fill:#ffffff;fill-opacity:1;stroke-width:0.264583"
       id="path3-3"
       sodipodi:type="arc"
       sodipodi:cx="59.26403"
       sodipodi:cy="87.235611"
       sodipodi:rx="8.2837849"
       sodipodi:ry="8.5510035"
       sodipodi:start="3.1415927"
       sodipodi:end="2.9323592"
       sodipodi:open="true"
       sodipodi:arc-type="arc"
       d="m 50.980246,87.235611 a 8.2837849,8.5510035 0 0 1 7.850671,-8.539308 8.2837849,8.5510035 0 0 1 8.671608,7.646361 8.2837849,8.5510035 0 0 1 -6.94389,9.33888 8.2837849,8.5510035 0 0 1 -9.397724,-6.669803" />
    <path
       style="fill:#ffffff;fill-opacity:1;stroke-width:0.264583"
       id="path3-3-0"
       sodipodi:type="arc"
       sodipodi:cx="83.29789"
       sodipodi:cy="174.88341"
       sodipodi:rx="8.2837849"
       sodipodi:ry="8.5510035"
       sodipodi:start="3.1415927"
       sodipodi:end="2.9323592"
       sodipodi:open="true"
       sodipodi:arc-type="arc"
       d="m 75.014105,174.88341 a 8.2837849,8.5510035 0 0 1 7.850671,-8.53931 8.2837849,8.5510035 0 0 1 8.671608,7.64636 8.2837849,8.5510035 0 0 1 -6.943889,9.33888 8.2837849,8.5510035 0 0 1 -9.397724,-6.6698" />
    <path
       style="fill:#000000;stroke-width:0.264583"
       d="M 94.595473,283.25199 24.049697,232.4804"
       id="path6" />
    <path
       style="fill:#000000;stroke-width:0.264583"
       d="M -26.187448,278.44205 14.429818,212.17177"
       id="path7" />
    <path
       style="fill:#000000;stroke-width:0.264583"
       d="m 88.182219,189.72538 59.857021,-0.53444"
       id="path8" />
    <path
       style="fill:#000000;stroke-width:0.264583"
       d="M 197.20751,282.1831 72.149091,284.85531"
       id="path9" />
    <path
       style="fill:#000000;stroke-width:0.264583"
       d="m 138.41937,121.31735 -45.961651,2.13776"
       id="path12" />
    <path
       style="fill:none;fill-rule:evenodd;stroke:#ffffff;stroke-width:2;stroke-linecap:butt;stroke-linejoin:miter;stroke-dasharray:none;stroke-opacity:1"
       d="M 85.601762,166.66986 105.72999,94.910554"
       id="path22"
       inkscape:connector-type="polyline"
       inkscape:connector-curvature="0"
       inkscape:connection-start="#path3-3-0"
       inkscape:connection-end="#path3-6-2" />
    <path
       style="fill:none;fill-rule:evenodd;stroke:#ffffff;stroke-width:2;stroke-linecap:butt;stroke-linejoin:miter;stroke-dasharray:none;stroke-opacity:1"
       d="M 67.547649,87.213855 105.81867,87.113343"
       id="path25"
       inkscape:connector-type="polyline"
       inkscape:connector-curvature="0"
       inkscape:connection-start="#path3-3" />
    <path
       style="fill:none;fill-rule:evenodd;stroke:#ffffff;stroke-width:2;stroke-linecap:butt;stroke-linejoin:miter;stroke-dasharray:none;stroke-opacity:1"
       d="M 13.752123,174.94842 80.570258,17.878224"
       id="path26"
       inkscape:connector-type="polyline"
       inkscape:connector-curvature="0"
       inkscape:connection-start="#path3"
       inkscape:connection-end="#path3-6" />
    <path
       style="fill:#ffffff;fill-opacity:1;fill-rule:evenodd;stroke:#ffffff;stroke-width:2;stroke-linecap:butt;stroke-linejoin:miter;stroke-dasharray:none;stroke-opacity:1"
       d="M 153.22678,174.52461 87.205769,17.889744"
       id="path27"
       inkscape:connector-type="polyline"
       inkscape:connector-curvature="0"
       inkscape:connection-start="#path3-7"
       inkscape:connection-end="#path3-6" />
    <path
       style="fill:none;fill-rule:evenodd;stroke:#ffffff;stroke-width:2;stroke-linecap:butt;stroke-linejoin:miter;stroke-dasharray:none;stroke-opacity:1"
       d="M 18.705141,182.75433 156.53169,182.36551"
       id="path28"
       inkscape:connector-type="polyline"
       inkscape:connector-curvature="0"
       inkscape:connection-start="#path3"
       inkscape:connection-end="#path3-7" />
    <path
       style="fill:none;fill-rule:evenodd;stroke:#ffffff;stroke-width:2;stroke-linecap:butt;stroke-linejoin:miter;stroke-dasharray:none;stroke-opacity:1"
       d="M 81.041784,166.65574 61.520154,95.463347"
       id="path29"
       inkscape:connector-type="polyline"
       inkscape:connector-curvature="0"
       inkscape:connection-start="#path3-3-0"
       inkscape:connection-end="#path3-3" />
    <text
       xml:space="preserve"
       transform="scale(0.26458333)"
       id="text3"
       style="white-space:pre;shape-inside:url(#rect3);fill:#ffffff;stroke:#ffffff;stroke-width:7.55906" />
  </g>
</svg>
