<?xml version="1.0" encoding="UTF-8" standalone="no"?>
<!-- Created with Inkscape (http://www.inkscape.org/) -->

<svg
   width="210mm"
   height="297mm"
   viewBox="0 0 210 297"
   version="1.1"
   id="svg1"
   inkscape:version="1.3.2 (091e20e, 2023-11-25)"
   sodipodi:docname="dots.svg"
   xmlns:inkscape="http://www.inkscape.org/namespaces/inkscape"
   xmlns:sodipodi="http://sodipodi.sourceforge.net/DTD/sodipodi-0.dtd"
   xmlns="http://www.w3.org/2000/svg"
   xmlns:svg="http://www.w3.org/2000/svg">
  <sodipodi:namedview
     id="namedview1"
     pagecolor="#2e2e2e"
     bordercolor="#000000"
     borderopacity="0.25"
     inkscape:showpageshadow="2"
     inkscape:pageopacity="0.0"
     inkscape:pagecheckerboard="0"
     inkscape:deskcolor="#d1d1d1"
     inkscape:document-units="mm"
     inkscape:zoom="0.49506861"
     inkscape:cx="328.23733"
     inkscape:cy="535.27935"
     inkscape:window-width="1440"
     inkscape:window-height="805"
     inkscape:window-x="0"
     inkscape:window-y="23"
     inkscape:window-maximized="0"
     inkscape:current-layer="layer1" />
  <defs
     id="defs1" />
  <g
     inkscape:label="Layer 1"
     inkscape:groupmode="layer"
     id="layer1">
    <path
       style="fill:#ffffff;stroke-width:0.264583;fill-opacity:1"
       id="path3"
       sodipodi:type="arc"
       sodipodi:cx="31.264599"
       sodipodi:cy="225.53271"
       sodipodi:rx="8.2837849"
       sodipodi:ry="8.5510035"
       sodipodi:start="3.1415927"
       sodipodi:end="2.9323592"
       sodipodi:open="true"
       sodipodi:arc-type="arc"
       d="m 22.980814,225.53271 a 8.2837849,8.5510035 0 0 1 7.850671,-8.5393 8.2837849,8.5510035 0 0 1 8.671608,7.64636 8.2837849,8.5510035 0 0 1 -6.943889,9.33888 8.2837849,8.5510035 0 0 1 -9.397724,-6.66981" />
    <path
       style="fill:#ffffff;stroke-width:0.264583;fill-opacity:1"
       id="path3-6"
       sodipodi:type="arc"
       sodipodi:cx="104.74395"
       sodipodi:cy="52.803909"
       sodipodi:rx="8.2837849"
       sodipodi:ry="8.5510035"
       sodipodi:start="3.1415927"
       sodipodi:end="2.9323592"
       sodipodi:open="true"
       sodipodi:arc-type="arc"
       d="m 96.460165,52.803909 a 8.2837849,8.5510035 0 0 1 7.850675,-8.539307 8.2837849,8.5510035 0 0 1 8.6716,7.64636 8.2837849,8.5510035 0 0 1 -6.94389,9.33888 8.2837849,8.5510035 0 0 1 -9.397719,-6.669803" />
    <path
       style="fill:#ffffff;stroke-width:0.264583;fill-opacity:1"
       id="path3-6-2"
       sodipodi:type="arc"
       sodipodi:cx="128.87695"
       sodipodi:cy="129.45195"
       sodipodi:rx="8.2837849"
       sodipodi:ry="8.5510035"
       sodipodi:start="3.1415927"
       sodipodi:end="2.9323592"
       sodipodi:open="true"
       sodipodi:arc-type="arc"
       d="m 120.59317,129.45195 a 8.2837849,8.5510035 0 0 1 7.85067,-8.53931 8.2837849,8.5510035 0 0 1 8.67161,7.64636 8.2837849,8.5510035 0 0 1 -6.94389,9.33888 8.2837849,8.5510035 0 0 1 -9.39773,-6.6698" />
    <path
       style="fill:#ffffff;stroke-width:0.264583;fill-opacity:1"
       id="path3-7"
       sodipodi:type="arc"
       sodipodi:cx="177.37476"
       sodipodi:cy="225.12053"
       sodipodi:rx="8.2837849"
       sodipodi:ry="8.5510035"
       sodipodi:start="3.1415927"
       sodipodi:end="2.9323592"
       sodipodi:open="true"
       sodipodi:arc-type="arc"
       d="m 169.09097,225.12053 a 8.2837849,8.5510035 0 0 1 7.85067,-8.53931 8.2837849,8.5510035 0 0 1 8.67161,7.64636 8.2837849,8.5510035 0 0 1 -6.94389,9.33888 8.2837849,8.5510035 0 0 1 -9.39772,-6.6698" />
    <path
       style="fill:#ffffff;stroke-width:0.264583;fill-opacity:1"
       id="path3-3"
       sodipodi:type="arc"
       sodipodi:cx="80.107101"
       sodipodi:cy="129.99063"
       sodipodi:rx="8.2837849"
       sodipodi:ry="8.5510035"
       sodipodi:start="3.1415927"
       sodipodi:end="2.9323592"
       sodipodi:open="true"
       sodipodi:arc-type="arc"
       d="m 71.823317,129.99063 a 8.2837849,8.5510035 0 0 1 7.850671,-8.53931 8.2837849,8.5510035 0 0 1 8.671608,7.64636 8.2837849,8.5510035 0 0 1 -6.94389,9.33888 8.2837849,8.5510035 0 0 1 -9.397724,-6.6698" />
    <path
       style="fill:#ffffff;stroke-width:0.264583;fill-opacity:1"
       id="path3-3-0"
       sodipodi:type="arc"
       sodipodi:cx="104.14096"
       sodipodi:cy="217.63843"
       sodipodi:rx="8.2837849"
       sodipodi:ry="8.5510035"
       sodipodi:start="3.1415927"
       sodipodi:end="2.9323592"
       sodipodi:open="true"
       sodipodi:arc-type="arc"
       d="m 95.857176,217.63843 a 8.2837849,8.5510035 0 0 1 7.850674,-8.53931 8.2837849,8.5510035 0 0 1 8.67161,7.64636 8.2837849,8.5510035 0 0 1 -6.94389,9.33888 8.2837849,8.5510035 0 0 1 -9.397728,-6.6698" />
    <path
       style="fill:#000000;stroke-width:0.264583"
       d="M 94.595473,283.25199 24.049697,232.4804"
       id="path6" />
    <path
       style="fill:#000000;stroke-width:0.264583"
       d="M -26.187448,278.44205 14.429818,212.17177"
       id="path7" />
    <path
       style="fill:#000000;stroke-width:0.264583"
       d="m 109.02529,232.4804 59.85702,-0.53444"
       id="path8" />
    <path
       style="fill:#000000;stroke-width:0.264583"
       d="M 197.20751,282.1831 72.149091,284.85531"
       id="path9" />
    <path
       style="fill:#000000;stroke-width:0.264583"
       d="m 159.26244,164.07237 -45.96165,2.13776"
       id="path12" />
    <path
       style="fill:none;fill-rule:evenodd;stroke:#ffffff;stroke-width:2;stroke-linecap:butt;stroke-linejoin:miter;stroke-dasharray:none;stroke-opacity:1"
       d="m 106.44483,209.42488 20.12823,-71.75931"
       id="path22"
       inkscape:connector-type="polyline"
       inkscape:connector-curvature="0"
       inkscape:connection-start="#path3-3-0"
       inkscape:connection-end="#path3-6-2" />
    <path
       style="fill:none;fill-rule:evenodd;stroke:#ffffff;stroke-width:2;stroke-linecap:butt;stroke-linejoin:miter;stroke-dasharray:none;stroke-opacity:1"
       d="m 88.39072,129.96888 38.27102,-0.10052"
       id="path25"
       inkscape:connector-type="polyline"
       inkscape:connector-curvature="0"
       inkscape:connection-start="#path3-3" />
    <path
       style="fill:none;fill-rule:evenodd;stroke:#ffffff;stroke-width:2;stroke-linecap:butt;stroke-linejoin:miter;stroke-dasharray:none;stroke-opacity:1"
       d="M 34.595194,217.70344 101.41333,60.63324"
       id="path26"
       inkscape:connector-type="polyline"
       inkscape:connector-curvature="0"
       inkscape:connection-start="#path3"
       inkscape:connection-end="#path3-6" />
    <path
       style="fill:#ffffff;fill-opacity:1;fill-rule:evenodd;stroke:#ffffff;stroke-width:2;stroke-linecap:butt;stroke-linejoin:miter;stroke-dasharray:none;stroke-opacity:1"
       d="M 174.06985,217.27963 108.04884,60.644761"
       id="path27"
       inkscape:connector-type="polyline"
       inkscape:connector-curvature="0"
       inkscape:connection-start="#path3-7"
       inkscape:connection-end="#path3-6" />
    <path
       style="fill:none;fill-rule:evenodd;stroke:#ffffff;stroke-width:2;stroke-linecap:butt;stroke-linejoin:miter;stroke-dasharray:none;stroke-opacity:1"
       d="M 39.548212,225.50935 177.37476,225.12053"
       id="path28"
       inkscape:connector-type="polyline"
       inkscape:connector-curvature="0"
       inkscape:connection-start="#path3"
       inkscape:connection-end="#path3-7" />
    <path
       style="fill:none;fill-rule:evenodd;stroke:#ffffff;stroke-width:2;stroke-linecap:butt;stroke-linejoin:miter;stroke-dasharray:none;stroke-opacity:1"
       d="M 101.88485,209.41076 82.363225,138.21837"
       id="path29"
       inkscape:connector-type="polyline"
       inkscape:connector-curvature="0"
       inkscape:connection-start="#path3-3-0"
       inkscape:connection-end="#path3-3" />
  </g>
</svg>
